<?xml version="1.0" standalone="no"?>
<!DOCTYPE svg PUBLIC "-//W3C//DTD SVG 20010904//EN"
 "http://www.w3.org/TR/2001/REC-SVG-20010904/DTD/svg10.dtd">
<svg version="1.0" xmlns="http://www.w3.org/2000/svg"
 width="2133.000000pt" height="2133.000000pt" viewBox="0 0 2133.000000 2133.000000"
 preserveAspectRatio="xMidYMid meet">
<metadata>
Created by potrace 1.14, written by Peter Selinger 2001-2017
</metadata>
<g transform="translate(0.000000,2133.000000) scale(0.100000,-0.100000)"
fill="#000000" stroke="none">
<path d="M10208 19375 c-2 -2 -16 -5 -33 -8 -118 -20 -251 -146 -321 -303 -51
-114 -115 -353 -138 -509 -3 -22 -8 -51 -10 -65 -33 -184 -37 -511 -10 -792
l6 -58 -84 -1 c-45 -1 -94 -2 -108 -3 -14 -2 -68 -6 -120 -10 -52 -4 -97 -9
-100 -11 -3 -1 -34 -6 -69 -9 -35 -4 -85 -11 -110 -16 -25 -5 -57 -12 -71 -14
-373 -66 -817 -243 -1470 -587 -356 -187 -676 -351 -1280 -656 -797 -403
-1268 -642 -1385 -703 -60 -31 -173 -90 -250 -130 -311 -162 -661 -348 -780
-417 -22 -12 -47 -26 -55 -30 -8 -4 -66 -37 -129 -75 -63 -37 -116 -68 -118
-68 -3 0 -85 -52 -245 -156 -110 -72 -311 -213 -358 -251 -8 -6 -53 -42 -100
-79 -218 -173 -475 -418 -595 -566 -33 -41 -53 -58 -70 -58 -105 0 -257 -160
-345 -365 -53 -121 -132 -362 -146 -445 -3 -14 -8 -34 -11 -45 -8 -23 -9 -28
-18 -74 -3 -19 -7 -37 -9 -40 -2 -3 -7 -22 -10 -41 -3 -19 -12 -66 -20 -105
-12 -59 -36 -192 -51 -285 -2 -14 -13 -79 -24 -145 -11 -66 -23 -145 -26 -175
-4 -30 -9 -62 -10 -71 -2 -9 -6 -52 -10 -95 -4 -43 -9 -81 -10 -84 -2 -3 -6
-39 -10 -80 -3 -41 -8 -86 -10 -100 -2 -14 -6 -54 -10 -90 -4 -36 -8 -76 -10
-90 -4 -24 -12 -122 -21 -235 -5 -68 -6 -385 0 -410 2 -11 7 -47 11 -80 3 -33
11 -78 16 -100 5 -22 12 -51 15 -65 11 -54 56 -172 90 -237 39 -74 86 -136
148 -195 38 -35 40 -40 37 -90 -1 -29 2 -72 7 -95 9 -40 8 -42 -34 -84 -71
-70 -131 -211 -149 -354 -12 -93 -7 -263 10 -385 14 -97 61 -273 95 -355 21
-51 20 -56 -30 -115 -62 -76 -124 -201 -152 -310 -18 -70 -22 -113 -22 -245 0
-144 7 -253 19 -295 5 -16 12 -54 21 -110 3 -19 17 -78 30 -130 14 -52 27
-104 29 -115 2 -11 4 -20 5 -20 1 0 3 -7 5 -15 1 -8 15 -61 30 -118 14 -56 28
-115 31 -130 2 -15 8 -40 11 -57 4 -16 8 -34 8 -40 1 -5 4 -23 8 -40 13 -53
37 -189 52 -285 2 -14 6 -44 10 -68 5 -31 2 -53 -10 -79 -19 -39 -21 -88 -11
-198 22 -223 22 -577 0 -1015 -16 -310 -10 -947 10 -1070 3 -14 7 -45 10 -70
3 -25 8 -54 10 -65 2 -11 7 -40 11 -65 47 -302 187 -647 362 -893 58 -81 258
-291 321 -337 19 -14 46 -34 60 -46 188 -146 502 -300 824 -403 113 -36 337
-97 428 -116 8 -2 56 -12 105 -24 80 -18 318 -67 370 -76 11 -2 34 -7 50 -10
17 -3 43 -8 59 -10 15 -2 35 -7 45 -9 9 -3 30 -8 46 -10 17 -3 75 -14 130 -25
55 -11 115 -23 132 -26 18 -3 61 -12 95 -20 35 -8 74 -16 88 -19 14 -2 66 -12
115 -21 50 -10 101 -19 115 -21 14 -3 33 -7 42 -10 9 -3 25 -6 35 -8 56 -10
90 -17 108 -20 38 -9 320 -65 350 -70 17 -3 55 -10 85 -16 30 -6 66 -13 80
-16 14 -3 81 -16 150 -30 69 -13 141 -27 160 -30 33 -5 85 -14 270 -49 41 -8
131 -24 200 -35 69 -12 134 -23 145 -24 29 -6 85 -15 120 -21 17 -3 50 -8 74
-11 25 -3 47 -7 50 -9 3 -2 30 -6 60 -10 30 -4 63 -9 75 -11 12 -2 41 -7 66
-9 25 -3 52 -8 60 -10 8 -2 39 -7 69 -10 30 -4 63 -9 75 -11 12 -2 41 -6 66
-9 45 -6 166 -22 228 -30 18 -3 54 -7 80 -10 46 -5 91 -11 162 -20 47 -6 148
-17 185 -20 17 -2 64 -6 105 -9 41 -4 86 -9 100 -11 14 -2 66 -6 115 -10 50
-3 108 -8 130 -10 37 -4 150 -12 300 -20 33 -2 105 -6 160 -10 99 -6 151 -9
375 -19 594 -28 1158 -43 2335 -61 951 -15 1336 -24 2105 -50 1050 -35 1643
-44 1951 -32 174 8 251 15 474 43 193 24 509 106 695 181 198 79 325 145 495
258 493 329 845 832 969 1387 14 62 28 131 31 153 3 22 7 49 10 60 14 68 23
361 15 475 -5 62 -26 120 -55 150 l-24 26 34 92 c19 51 51 145 71 210 30 99
43 147 69 262 14 57 54 274 59 315 4 28 9 64 11 80 10 64 14 106 30 270 27
282 22 806 -10 1130 -2 28 -7 79 -10 115 -9 93 -34 167 -70 205 l-31 33 47 94
c58 115 105 249 124 353 28 159 23 400 -11 482 -13 31 -13 39 0 67 93 198 142
353 161 510 7 57 7 190 1 226 -3 14 -7 43 -11 65 -7 51 -11 66 -41 145 l-24
66 65 178 c36 98 92 245 125 326 32 82 62 165 65 184 10 51 -12 131 -49 179
-27 36 -31 47 -24 72 5 17 11 46 14 65 3 19 7 37 9 40 18 30 26 288 12 402
-11 88 -48 243 -82 338 -28 78 -105 251 -115 260 -4 3 -10 14 -14 25 -10 27
-157 272 -176 293 -8 9 -24 31 -34 47 -19 30 -156 216 -166 225 -3 3 -44 52
-92 110 -47 58 -95 116 -107 130 -12 14 -43 49 -69 79 -26 30 -65 75 -88 100
-22 25 -82 93 -134 151 -252 285 -689 728 -1011 1026 -38 34 -112 102 -339
308 -49 45 -196 175 -245 217 -16 14 -55 48 -86 75 -63 56 -53 47 -299 259
-102 88 -196 169 -209 180 -13 11 -29 25 -35 30 -6 6 -40 35 -76 65 -70 60
-116 99 -134 115 -17 15 -137 118 -170 146 -16 13 -34 29 -40 34 -6 6 -58 50
-116 100 -58 49 -107 92 -110 95 -3 3 -41 36 -85 75 -44 38 -82 72 -85 75 -3
3 -39 34 -80 70 -41 36 -95 84 -120 107 -25 23 -56 51 -69 63 -60 51 -224 201
-340 310 -21 19 -52 64 -70 100 -38 76 -92 164 -103 168 -5 2 -8 9 -8 16 0 18
-168 224 -245 300 -241 239 -529 418 -835 519 -80 27 -184 56 -221 61 -20 3
-42 7 -50 10 -55 18 -297 26 -399 13 -67 -9 -200 -40 -257 -61 -44 -16 -45
-15 -58 34 -18 66 -117 254 -162 307 -10 12 -34 41 -53 64 -248 307 -760 573
-1330 693 -99 20 -187 35 -246 42 -69 7 -83 9 -88 15 -4 4 -8 39 -21 202 -12
139 -5 488 11 571 2 11 6 38 9 61 10 64 62 274 85 340 23 67 57 120 113 180
22 22 45 57 52 78 12 36 14 119 2 162 -10 40 -48 93 -85 118 -32 22 -115 50
-124 42z m-6876 -8991 c79 -41 161 -171 197 -314 19 -78 30 -146 46 -288 12
-119 25 -457 17 -479 -3 -9 -9 -10 -23 -2 -10 5 -97 39 -191 75 -95 35 -182
69 -193 74 -11 5 -51 21 -90 36 -38 15 -88 35 -110 44 -97 43 -120 53 -125 55
-40 14 -147 63 -255 117 -157 79 -283 175 -339 258 -22 33 -21 36 19 38 54 4
202 49 280 86 39 18 133 74 210 125 188 125 268 168 354 190 78 19 146 14 203
-15z m-239 -3655 c39 -11 63 -26 104 -68 39 -40 55 -83 59 -156 4 -94 -28
-157 -98 -193 -183 -94 -384 87 -327 293 13 45 84 121 121 128 44 8 103 7 141
-4z"/>
</g>
</svg>
